# xmcd
#
# Track frame offsets:
#	150
#	13113
#	24323
#	36551
#	47466
#	57520
#	67905
#	81174
#	93401
#	103403
#	114499
#	124383
#	139292
#	153744
#	165456
#	175962
#	183606
#	194921
#	202109
#	214737
#
# Disc length: 3012 seconds
#
# Revision: 1
# Processed by: cddbd v1.5.2PL0 Copyright (c) Steve Scherf et al.
# Submitted via: audiograbber 1.83.01
#
DISCID=320bc214
DTITLE=Various Artist - 200 Country Classics Vol.1  -  CD 4
DYEAR=2008
DGENRE=Country
TTITLE0=Freddy Fender - Silver Wings
TTITLE1=Kenny Rogers - Me And Bobby McGee
TTITLE2=Sammi Smith - Send Me The Pillow That You Dream On
TTITLE3=Roger Miller - King Of The Road
TTITLE4=Faron Young - Hello Walls
TTITLE5=Patsy Cline - Lovesick Blues
TTITLE6=Ferlin Husky - Country Music Is Here To Stay
TTITLE7=Hank Thompson - Wild Side Of Life
TTITLE8=Johnny Cash - Get Rhythm
TTITLE9=Conway Twitty - it's Only Make Believe
TTITLE10=Waylon Jennings - Dream Baby
TTITLE11=Donna Fargo - That Was Yesterday
TTITLE12=Anne Murray - David's Song
TTITLE13=Dave Dudley - Yellow Rose Of Texas
TTITLE14=Barbara Fairchild - Kid Stuff
TTITLE15=Jim Reeves - Oklahoma Hills
TTITLE16=Porter Wagoner - Misery Loves Company
TTITLE17=Buck Owens - That Ain't Right, Baby
TTITLE18=Freddy Fender - Something On Your Mind
TTITLE19=Willie Nelson - Suffering In Silence
EXTD=YEAR: 2008
EXTT0=
EXTT1=
EXTT2=
EXTT3=
EXTT4=
EXTT5=
EXTT6=
EXTT7=
EXTT8=
EXTT9=
EXTT10=
EXTT11=
EXTT12=
EXTT13=
EXTT14=
EXTT15=
EXTT16=
EXTT17=
EXTT18=
EXTT19=
PLAYORDER=
